<svg width="237" height="237" viewBox="0 0 237 237" fill="none" xmlns="http://www.w3.org/2000/svg">
<path fill-rule="evenodd" clip-rule="evenodd" d="M118.499 0.914062C183.429 0.914062 236.064 53.6334 236.064 118.667C236.064 183.7 183.429 236.419 118.499 236.419C53.5691 236.419 0.933594 183.7 0.933594 118.667C0.933594 53.6334 53.5691 0.914062 118.499 0.914062ZM184.009 165.561L136.964 125.143L130.631 130.58C127.273 133.46 122.898 134.924 118.572 134.937C114.222 134.962 109.86 133.534 106.513 130.667L100.081 125.143L53.0107 165.573C53.742 165.896 54.5599 166.082 55.4151 166.082H181.594C182.45 166.095 183.266 165.896 184.009 165.561ZM49.5144 155.606L92.5207 118.664L49.5144 81.7224V155.606ZM53.0095 71.7537L103.189 114.851L103.276 114.925L103.301 114.95L112.893 123.193C114.393 124.484 116.438 125.117 118.52 125.117C120.614 125.104 122.684 124.434 124.233 123.106L133.727 114.95L133.751 114.938L133.838 114.863L183.996 71.7759C183.252 71.4407 182.434 71.2545 181.579 71.2545L95.6046 71.2421H55.3998C54.557 71.2297 53.7407 71.4186 53.0095 71.7537ZM187.479 81.7586L144.511 118.662L187.479 155.566V81.7586Z" fill="black"/>
</svg>
