<svg xmlns="http://www.w3.org/2000/svg" width="12" height="12" viewBox="0 0 12 12" fill="none">
<path d="M5.27272 8.55816L5.61288 5.86192H5.27335C5.05159 5.86192 4.87243 5.68274 4.87243 5.46098C4.87243 5.23921 5.05159 5.06003 5.27335 5.06003H6.06767C6.18293 5.06003 6.29193 5.10952 6.36836 5.19598C6.44479 5.28243 6.47986 5.39707 6.46546 5.51173L6.1253 8.20798H6.34268C6.56444 8.20798 6.7436 8.38715 6.7436 8.60892C6.7436 8.83068 6.56444 9.00986 6.34268 9.00986H5.67051C5.55524 9.00986 5.44625 8.96037 5.36982 8.87391C5.29339 8.78746 5.25831 8.67282 5.27272 8.55816ZM6.00002 0C2.69178 0 0 2.69128 0 5.99968C0 9.30808 2.69114 12 6.00002 12C6.96411 12 7.88499 11.7782 8.73687 11.341C8.93358 11.2395 9.01125 10.9983 8.91039 10.8009C8.80891 10.6036 8.5671 10.5259 8.3704 10.6274C7.63307 11.0058 6.83562 11.1981 5.99999 11.1981C3.13405 11.1981 0.80181 8.86641 0.80181 5.99968C0.80181 3.13359 3.13341 0.801882 5.99999 0.801882C8.86594 0.801882 11.1975 3.13359 11.1975 5.99968C11.1975 6.67501 11.0697 7.33218 10.8185 7.95242C10.7352 8.1579 10.8342 8.39158 11.0397 8.4749C11.2445 8.55822 11.4788 8.45923 11.5621 8.25438C11.8528 7.53833 12 6.77967 12 6.00029C12 2.69188 9.30886 0.00060934 6.00062 0.00060934L6.00002 0ZM6.22366 3.19373C5.89102 3.19373 5.62165 3.46312 5.62165 3.79577C5.62165 4.12842 5.89102 4.39781 6.22366 4.39781C6.55629 4.39781 6.82566 4.12842 6.82566 3.79577C6.82566 3.46312 6.55629 3.19373 6.22366 3.19373Z" fill="black"/>
</svg>