<svg width="271" height="271" viewBox="0 0 271 271" fill="none" xmlns="http://www.w3.org/2000/svg">
<path fill-rule="evenodd" clip-rule="evenodd" d="M135.5 0.4375C210.072 0.4375 270.515 60.9901 270.515 135.668C270.515 210.358 210.072 270.898 135.5 270.898C60.928 270.898 0.484375 210.358 0.484375 135.668C0.484375 60.9773 60.928 0.4375 135.5 0.4375ZM56.7273 88.4111C60.6809 144.505 126.676 210.606 182.681 214.566C191.58 215.199 190.923 215.459 198.136 208.93C217.346 191.577 218.499 181.385 207.877 174.013C207.741 173.913 207.629 173.827 207.493 173.727C175.134 147.635 180.165 148.864 147.808 169.569C145.688 170.922 143.185 170.996 140.979 169.78C121.521 158.943 112.276 149.683 101.456 130.194C100.242 127.997 100.316 125.477 101.667 123.355C122.327 90.9319 123.554 95.9712 97.5153 63.5744C97.4162 63.4379 97.317 63.3262 97.2303 63.1896C89.881 52.5514 79.6936 53.7183 62.3683 72.9464C55.837 80.1583 56.1074 79.4984 56.7273 88.4111Z" fill="black"/>
</svg>
